# xmcd
#
# Track frame offsets:
#	150
#	13375
#	26335
#	35197
#	47360
#	59740
#	72037
#	83142
#	93495
#	114617
#
# Disc length: 1695 seconds
#
# Revision: 0
# Processed by: cddbd v1.5.1PL2 Copyright (c) Steve Scherf et al.
# Submitted via: dBpowerAMP V4.0
#
DISCID=84069d0a
DTITLE=Various Artist - Exitos del Country
DYEAR=1900
DGENRE=Country
TTITLE0=The Rose Garden (Lynn Anderson)
TTITLE1=Ruby, don't take your love to town (Kenny Rogers)
TTITLE2=Jambalaya (Freddy Fender)
TTITLE3=I walk the line (Johnny Cash)
TTITLE4=High Noon (Frankie Lane)
TTITLE5=Crazy (Patsy Cline)
TTITLE6=King of the road (Roger Miller)
TTITLE7=Stupid Cupid (Wanda Jackson)
TTITLE8=Baby I'm yours (Tanya Tucker)
TTITLE9=Love with all your heart (Johnny Rodriguez)
EXTD=
EXTT0=
EXTT1=
EXTT2=
EXTT3=
EXTT4=
EXTT5=
EXTT6=
EXTT7=
EXTT8=
EXTT9=
PLAYORDER=
